# xmcd
#
# Track frame offsets: 
#        150
#        13942
#        28659
#        43452
#        56404
#        70751
#        85156
#        99765
#        113865
#        127660
#        141754
#        155448
#        168604
#        181315
#        194390
#        207210
#        221889
#        235184
#        248555
#        263000
#        275939
#        289016
#        302300
#        315961
#
# Disc length: 4383 seconds
#
# Revision: 2
# Processed by: cddbd v1.5.2PL0 Copyright (c) Steve Scherf et al.
# Submitted via: ExactAudioCopyFreeDBPlugin 1.0
#
DISCID=51111d18
DTITLE=Blind Willie McTell - Jailhouse Blues
DYEAR=1900
DGENRE=
TTITLE0=Georgia Rag
TTITLE1=Rough Alley Blues
TTITLE2=Low Rider's Blues
TTITLE3=Painful Blues
TTITLE4=Experience Blues
TTITLE5=Low down Blues
TTITLE6=Lonesome Day Blues
TTITLE7=Mama, Let Me Scoop For You
TTITLE8=Rollin' Mama Blues
TTITLE9=Searching The desert For The Blues
TTITLE10=It's Your Time To Worry
TTITLE11=Warm It Up To Me
TTITLE12=You Was Born To Die
TTITLE13=Don't You See How This World Made A Change
TTITLE14=It's A Good Little Thing
TTITLE15=Savannah Mama
TTITLE16=Lord Have Mercy If You Please
TTITLE17=My Baby's Gone
TTITLE18=Broke Down Engine
TTITLE19=Broke Down Engine No 2
TTITLE20=Love-Makin' Mama
TTITLE21=Death Room Blues
TTITLE22=Death Cell Blues
TTITLE23=Lord, Send Me An Angel
EXTD=
EXTT0=
EXTT1=
EXTT2=
EXTT3=
EXTT4=
EXTT5=
EXTT6=
EXTT7=
EXTT8=
EXTT9=
EXTT10=
EXTT11=
EXTT12=
EXTT13=
EXTT14=
EXTT15=
EXTT16=
EXTT17=
EXTT18=
EXTT19=
EXTT20=
EXTT21=
EXTT22=
EXTT23=
PLAYORDER=
